<svg xmlns="http://www.w3.org/2000/svg" width="24" height="24" fill="currentColor" viewBox="0 0 10 10"><path d="M3.3 6.7c0 .346 0 .52-.078.646a.5.5 0 0 1-.176.176c-.127.078-.3.078-.646.078s-.519 0-.646-.078a.5.5 0 0 1-.176-.176C1.5 7.22 1.5 7.046 1.5 6.7V5c0-.346 0-.519.078-.646a.5.5 0 0 1 .176-.176c.127-.078.3-.078.646-.078s.519 0 .646.078a.5.5 0 0 1 .176.176c.078.127.078.3.078.646zm2.6 0c0 .346 0 .52-.077.646a.5.5 0 0 1-.176.176c-.128.078-.3.078-.647.078-.345 0-.518 0-.646-.078a.5.5 0 0 1-.176-.176c-.077-.127-.077-.3-.077-.646V3.3c0-.346 0-.52.077-.646a.5.5 0 0 1 .176-.176c.128-.078.3-.078.646-.078s.52 0 .647.078a.5.5 0 0 1 .176.176c.077.127.077.3.077.646zm2.6 0c0 .346 0 .52-.078.646a.5.5 0 0 1-.176.176c-.127.078-.3.078-.646.078s-.519 0-.646-.078a.5.5 0 0 1-.176-.176C6.7 7.22 6.7 7.046 6.7 6.7v-.5c0-.346 0-.519.078-.646a.5.5 0 0 1 .176-.176c.127-.078.3-.078.646-.078s.519 0 .646.078a.5.5 0 0 1 .176.176c.078.127.078.3.078.646z"/></svg>