<svg xmlns="http://www.w3.org/2000/svg" width="24" height="24" fill="currentColor" viewBox="0 0 10 10"><path d="M5.004 2.607a.6.6 0 0 1 .22.08c.289.175.289.75.289 1.898v.83c0 1.149 0 1.723-.29 1.898a.6.6 0 0 1-.218.08c-.288.044-.602-.276-1.157-.928-.135-.159-.202-.238-.29-.283l-.039-.019c-.091-.037-.194-.037-.4-.037h-.057c-.423 0-.634 0-.774-.12a1 1 0 0 1-.056-.055c-.12-.14-.12-.352-.12-.775v-.35c0-.423 0-.635.12-.775a1 1 0 0 1 .056-.055c.14-.12.351-.12.774-.12h.057c.206 0 .309 0 .4-.038l.04-.018c.087-.045.154-.125.29-.283.553-.653.867-.974 1.155-.93m1.615.572a.45.45 0 0 1 .637 0l.002.002.001.001.003.004.01.01a1 1 0 0 1 .104.125c.061.082.138.198.214.35.152.305.298.748.298 1.326s-.146 1.021-.298 1.326a2.3 2.3 0 0 1-.292.446l-.027.03-.01.01q0 0-.002.003h-.001l-.002.002a.45.45 0 0 1-.637-.635l.001-.001.035-.044c.033-.044.081-.115.13-.213a2.05 2.05 0 0 0 .202-.924 2.05 2.05 0 0 0-.202-.924 1.4 1.4 0 0 0-.165-.257l-.058-.07a.45.45 0 0 1 .057-.567"/></svg>